<svg width="48" height="45" viewBox="0 0 48 45" fill="none" xmlns="http://www.w3.org/2000/svg">
<g clip-path="url(#clip0_9654_219)">
<path d="M23.6353 0.0561697C24.4593 -0.196639 25.3769 0.477518 25.405 1.33894C25.4143 2.90261 25.405 4.46628 25.405 6.03932C25.4237 6.68538 24.9274 7.30336 24.2907 7.42508C23.4855 7.62171 22.6241 6.95692 22.6053 6.13295C22.596 4.56928 22.6053 3.00561 22.596 1.44194C22.5772 0.805233 23.0267 0.215346 23.6353 0.0561697Z" fill="#DF2DB1"/>
<path d="M13.3442 3.33332C13.8218 3.20223 14.3648 3.35204 14.7113 3.70785C15.9285 4.92508 17.1457 6.14231 18.363 7.35017C18.7469 7.69661 18.9435 8.23968 18.8218 8.7453C18.7094 9.28837 18.2412 9.71909 17.6982 9.81272C17.2581 9.88762 16.7899 9.74718 16.4716 9.43819C15.2356 8.20223 14.009 6.96628 12.7731 5.73968C12.4454 5.4307 12.2581 4.97189 12.3143 4.52246C12.3704 3.96066 12.7918 3.4644 13.3442 3.33332Z" fill="#DF2DB1"/>
<path d="M33.934 3.3333C34.5427 3.16476 35.2543 3.45502 35.5352 4.03555C35.8254 4.56926 35.7131 5.2715 35.273 5.69285C34.0277 6.93817 32.7823 8.19285 31.5277 9.43817C31.022 9.94379 30.1419 9.97188 29.6176 9.48499C29.0277 8.98873 28.9902 7.99622 29.552 7.45315C30.7973 6.20783 32.0427 4.96252 33.288 3.70783C33.4659 3.52993 33.6906 3.39885 33.934 3.3333Z" fill="#DF2DB1"/>
<path d="M13.6067 14.5693C14.9925 13.4176 16.7715 12.7715 18.5693 12.7622C21.3502 12.7622 24.1311 12.7622 26.9026 12.7622C28.073 12.7247 29.2528 13.015 30.236 13.6611C30.7978 14.0169 31.2659 14.5037 31.7341 14.9719C33.2603 16.4981 34.7959 18.0337 36.3221 19.5599C36.6873 19.9157 37.0524 20.2996 37.2584 20.7772C37.867 22.0506 37.4925 23.7079 36.3783 24.5787C35.1798 25.5805 33.2603 25.4682 32.1554 24.3914C30.8165 23.0712 29.5056 21.7322 28.176 20.412C27.8951 20.1311 27.5019 19.9813 27.1086 19.9813C23.5787 19.9719 20.0487 19.9813 16.5187 19.9813C14.9925 21.264 13.4663 22.5468 11.9307 23.8296C11.3596 24.3165 10.7603 24.7659 10.3015 25.3652C8.99064 27.0131 8.67229 29.382 9.4869 31.3202C10.133 32.912 11.5094 34.176 13.1386 34.7097C13.279 35.5618 13.5787 36.3858 14.0375 37.1161C13.3071 37.0693 12.4363 37.3034 11.8371 36.7509C10.6948 35.6367 9.58053 34.4944 8.44757 33.3708C6.29401 33.3614 4.14982 33.3708 1.99626 33.3708C1.61237 33.3708 1.20038 33.4082 0.835212 33.2303C0.395137 33.015 0.114238 32.5843 0.0299683 32.1161V16.8165C0.114238 16.1236 0.732215 15.5524 1.43446 15.5618C5.14233 15.5618 8.85019 15.5618 12.5581 15.5618C12.8951 15.2247 13.2322 14.8783 13.6067 14.5693Z" fill="#F6F6F7"/>
<path d="M39.1315 18.4738C41.6128 18.4738 44.0847 18.4738 46.566 18.4738C47.2495 18.4551 47.8394 19.0075 47.9705 19.6723V35.0187C47.8768 35.7023 47.2682 36.2734 46.5753 36.2641C44.7027 36.2734 42.83 36.2641 40.9574 36.2641C40.7701 36.2734 40.536 36.2172 40.3956 36.3764C37.2776 38.9981 34.1503 41.6105 31.0323 44.2322C30.2645 44.897 29.1783 45.1592 28.1952 44.9064C26.9873 44.6161 26.0229 43.5674 25.845 42.3408C25.6765 41.3951 26.0135 40.412 26.6315 39.691C26.0135 40.1779 25.4237 40.7023 24.815 41.1985C24.1128 41.8071 23.139 42.0787 22.2308 41.9195C21.0042 41.7322 19.9649 40.7491 19.684 39.5506C19.4124 38.4832 19.7589 37.3034 20.5454 36.545C19.8619 36.9944 19.0192 37.2285 18.1952 37.088C16.9218 36.9008 15.8356 35.8614 15.5922 34.588C15.3768 33.5393 15.742 32.4064 16.5098 31.676C15.7046 32.2378 14.6559 32.4532 13.7102 32.1536C12.4461 31.7884 11.5004 30.5712 11.463 29.2603C11.4162 28.2772 11.8656 27.294 12.6334 26.676C14.1877 25.3933 15.7046 24.073 17.2682 22.809C20.3768 22.7996 23.4855 22.7996 26.5941 22.809C27.5679 23.8015 28.5604 24.7847 29.5435 25.7678C29.9555 26.1704 30.3394 26.6011 30.8076 26.9382C31.8843 27.7435 33.242 28.1554 34.5903 28.0993C35.8637 28.0618 37.1091 27.5936 38.1016 26.7978C39.3001 25.8427 40.1147 24.4008 40.3019 22.8745C40.5079 21.3202 40.0679 19.7191 39.1315 18.4738Z" fill="#F6F6F7"/>
</g>
<defs>
<clipPath id="clip0_9654_219">
<rect width="47.9401" height="45" fill="white" transform="translate(0.0299683)"/>
</clipPath>
</defs>
</svg>
