<svg width="48" height="45" viewBox="0 0 48 45" fill="none" xmlns="http://www.w3.org/2000/svg">
<g clip-path="url(#clip0_9654_265)">
<path d="M11.8161 0.116053C13.0186 -0.0316264 14.2422 0.0105677 15.4553 1.91266e-05C21.7528 1.91266e-05 28.0397 1.91266e-05 34.3372 1.91266e-05C35.9194 0.0105677 37.5123 -0.063272 39.084 0.200441C40.9827 0.4958 42.8709 1.20255 44.3372 2.48947C45.7296 3.70255 46.6578 5.39032 47.1325 7.17302C47.5017 8.55487 47.6283 10 47.6283 11.4241C47.6283 16.2764 47.6283 21.1287 47.6283 25.9916C47.66 27.8481 47.5756 29.7258 47.0165 31.4979C46.4469 33.3861 45.3076 35.1372 43.6832 36.2764C41.6473 37.7215 39.1156 38.2173 36.6578 38.249C33.8836 38.2595 31.0988 38.249 28.3245 38.249C27.3013 38.2701 26.3414 37.5 26.141 36.4979C26.046 36.0971 26.1199 35.6857 26.1621 35.2743C26.4785 32.4051 25.8983 29.4409 24.5481 26.8882C22.9553 23.8397 20.2443 21.4135 17.0481 20.1477C13.5249 18.7342 9.44265 18.7658 5.95109 20.2637C5.33927 20.5591 4.61143 20.6224 3.97851 20.3481C3.16628 20.0106 2.59666 19.1561 2.61775 18.2701C2.61775 15.8439 2.61775 13.4072 2.61775 10.981C2.6494 8.67091 3.07134 6.27639 4.33716 4.30382C5.37092 2.65825 7.00594 1.42407 8.83083 0.78061C9.79075 0.453606 10.8034 0.232087 11.8161 0.116053ZM13.2718 9.67302C12.681 9.89453 12.238 10.4642 12.1958 11.0971C12.1431 11.6561 12.3962 12.2258 12.8287 12.5739C15.1178 14.3988 17.3962 16.2342 19.6853 18.0591C20.814 18.9557 22.1536 19.5781 23.5777 19.8312C25.5819 20.2004 27.7127 19.8312 29.4848 18.808C30.276 18.365 30.9616 17.7532 31.6684 17.1941C33.4194 15.7806 35.1916 14.3882 36.9426 12.9747C37.2697 12.711 37.6389 12.4684 37.8498 12.0886C38.2085 11.4557 38.1135 10.6013 37.5967 10.0844C37.0376 9.48314 36.0144 9.39875 35.3604 9.91563C33.0924 11.73 30.8245 13.5443 28.5566 15.3587C27.8815 15.9177 27.0692 16.308 26.2148 16.4874C24.7064 16.8038 23.0713 16.4346 21.8583 15.4853C19.5481 13.6393 17.2486 11.8038 14.9384 9.95783C14.4743 9.56753 13.8203 9.46204 13.2718 9.67302Z" fill="#F6F6F7"/>
<path d="M10.2342 22.595C12.5021 22.3102 14.865 22.7321 16.8797 23.8186C19.5485 25.2216 21.5949 27.7321 22.4282 30.6329C23.1561 33.1329 22.9768 35.8756 21.9219 38.2595C20.8776 40.6857 18.9367 42.7005 16.5633 43.8608C14.1793 45.0317 11.3734 45.3165 8.79955 44.6414C6.20462 43.9768 3.86285 42.3524 2.34386 40.1266C0.729934 37.8059 0.0548281 34.8735 0.487318 32.0886C0.845967 29.6203 2.05905 27.2996 3.87339 25.5908C5.6139 23.9557 7.87128 22.8903 10.2342 22.595ZM6.93247 29.1667C6.13078 29.1878 5.44512 29.9367 5.48732 30.7384C5.48732 31.5401 6.21517 32.2469 7.01685 32.2258C8.49365 32.2363 9.95989 32.2258 11.4367 32.2258C11.7637 32.2258 12.1118 32.1836 12.3966 32.0148C13.019 31.6667 13.3143 30.865 13.0717 30.1899C12.8607 29.5675 12.2173 29.1351 11.5633 29.1562C10.0232 29.1667 8.47255 29.1456 6.93247 29.1667ZM6.93247 35.2954C6.44723 35.3165 5.99365 35.5802 5.72993 35.9916C5.37128 36.519 5.40293 37.2574 5.79323 37.7532C6.09913 38.1646 6.60546 38.3756 7.11179 38.3545C9.95989 38.3545 12.808 38.3545 15.6666 38.3545C16.078 38.3545 16.5105 38.3861 16.8903 38.1857C17.5654 37.8692 17.9135 37.0148 17.6603 36.3186C17.4599 35.7068 16.8375 35.2743 16.1941 35.2848C13.1139 35.2954 10.0232 35.2848 6.93247 35.2954Z" fill="#2D55FB"/>
</g>
<defs>
<clipPath id="clip0_9654_265">
<rect width="47.2574" height="45" fill="white" transform="translate(0.371338)"/>
</clipPath>
</defs>
</svg>
