<svg width="145" height="41" viewBox="0 0 145 41" fill="none" xmlns="http://www.w3.org/2000/svg">
<path d="M0 8.21006C0 3.67577 3.67577 0 8.21006 0H32.2929C36.8272 0 40.5029 3.67577 40.5029 8.21006V32.2929C40.5029 36.8272 36.8272 40.5029 32.2929 40.5029H8.21006C3.67577 40.5029 0 36.8272 0 32.2929V8.21006Z" fill="url(#paint0_linear_9654_274)"/>
<path fill-rule="evenodd" clip-rule="evenodd" d="M20.9444 3.32465L38.5885 33.2462H3.35553L20.9444 3.32465ZM20.9452 4.59178L13.5531 17.167H28.3607L20.9452 4.59178ZM28.7367 17.8048H21.294V24.7681H32.8429L28.7367 17.8048ZM33.219 25.406H21.294V32.6083H37.4662L33.219 25.406ZM20.6493 32.6083V17.8048H13.1781L4.47623 32.6083H20.6493Z" fill="white"/>
<path d="M107.118 5.51708V7.2094H100.3V5.51708H107.118ZM102.287 2.40332H104.309V14.7907C104.309 15.3548 104.391 15.7778 104.557 16.0598C104.728 16.3363 104.945 16.5224 105.208 16.6184C105.476 16.7086 105.759 16.7537 106.056 16.7537C106.279 16.7537 106.462 16.7424 106.604 16.7199C106.747 16.6917 106.861 16.669 106.947 16.6521L107.358 18.446C107.221 18.4967 107.03 18.5476 106.784 18.5983C106.539 18.6547 106.227 18.683 105.85 18.683C105.279 18.683 104.72 18.5615 104.172 18.319C103.629 18.0765 103.178 17.707 102.818 17.2107C102.464 16.7142 102.287 16.088 102.287 15.3323V2.40332Z" fill="white"/>
<path d="M111.142 11.6166C111.142 12.6594 110.297 13.5047 109.254 13.5047C108.212 13.5047 107.366 12.6594 107.366 11.6166C107.366 10.5738 108.212 9.72852 109.254 9.72852C110.297 9.72852 111.142 10.5738 111.142 11.6166Z" fill="white"/>
<path fill-rule="evenodd" clip-rule="evenodd" d="M109.254 12.7047C109.855 12.7047 110.342 12.2175 110.342 11.6166C110.342 11.0157 109.855 10.5286 109.254 10.5286C108.653 10.5286 108.166 11.0157 108.166 11.6166C108.166 12.2175 108.653 12.7047 109.254 12.7047ZM109.254 13.5047C110.297 13.5047 111.142 12.6594 111.142 11.6166C111.142 10.5738 110.297 9.72852 109.254 9.72852C108.212 9.72852 107.366 10.5738 107.366 11.6166C107.366 12.6594 108.212 13.5047 109.254 13.5047Z" fill="#9764BF"/>
<path d="M120.134 21.3132C120.134 22.3559 119.289 23.2013 118.246 23.2013C117.204 23.2013 116.358 22.3559 116.358 21.3132C116.358 20.2704 117.204 19.425 118.246 19.425C119.289 19.425 120.134 20.2704 120.134 21.3132Z" fill="white"/>
<path fill-rule="evenodd" clip-rule="evenodd" d="M118.246 22.4012C118.847 22.4012 119.334 21.9141 119.334 21.3132C119.334 20.7122 118.847 20.2251 118.246 20.2251C117.645 20.2251 117.158 20.7122 117.158 21.3132C117.158 21.9141 117.645 22.4012 118.246 22.4012ZM118.246 23.2013C119.289 23.2013 120.134 22.3559 120.134 21.3132C120.134 20.2704 119.289 19.425 118.246 19.425C117.204 19.425 116.358 20.2704 116.358 21.3132C116.358 22.3559 117.204 23.2013 118.246 23.2013Z" fill="#9764BF"/>
<path d="M90.5137 10.6952V18.5134H88.4922V5.51681H90.4451V7.54745H90.6165C90.9248 6.88753 91.3931 6.35722 92.0213 5.95688C92.6495 5.55061 93.4605 5.34766 94.4542 5.34766C95.345 5.34766 96.1243 5.52814 96.7926 5.88911C97.4607 6.24451 97.9805 6.78596 98.3515 7.51365C98.7228 8.23578 98.9083 9.14952 98.9083 10.2551V18.5134H96.8868V10.3904C96.8868 9.36956 96.6184 8.57409 96.0817 8.00441C95.5448 7.42898 94.8081 7.14136 93.8716 7.14136C93.2263 7.14136 92.6495 7.27951 92.1412 7.55599C91.6388 7.83247 91.2418 8.23578 90.9506 8.7659C90.6594 9.29621 90.5137 9.93923 90.5137 10.6952Z" fill="white"/>
<path d="M81.1752 18.7841C79.9075 18.7841 78.814 18.5078 77.8946 17.955C76.9808 17.3965 76.2755 16.6181 75.7787 15.6197C75.2877 14.6155 75.042 13.4479 75.042 12.1166C75.042 10.7854 75.2877 9.61206 75.7787 8.59674C76.2755 7.57567 76.9665 6.78039 77.8517 6.21071C78.7426 5.63528 79.7819 5.34766 80.9697 5.34766C81.6549 5.34766 82.3316 5.46037 82.9997 5.68597C83.668 5.91176 84.2761 6.2783 84.8243 6.78596C85.3726 7.28805 85.8095 7.95372 86.1349 8.7828C86.4604 9.61206 86.6232 10.6331 86.6232 11.8458V12.692H76.4812V10.9659H84.5673C84.5673 10.2326 84.419 9.57827 84.122 9.00284C83.8306 8.42759 83.4138 7.97341 82.8713 7.64066C82.3345 7.30773 81.7006 7.14136 80.9697 7.14136C80.1644 7.14136 79.4678 7.33874 78.8796 7.73369C78.297 8.12288 77.8487 8.63054 77.5348 9.25666C77.2207 9.88279 77.0635 10.554 77.0635 11.2706V12.4213C77.0635 13.4028 77.235 14.2348 77.5775 14.9174C77.926 15.5942 78.4085 16.1104 79.0253 16.4658C79.6419 16.8155 80.3586 16.9904 81.1752 16.9904C81.7064 16.9904 82.186 16.917 82.6144 16.7703C83.0484 16.6181 83.4223 16.3925 83.7364 16.0935C84.0505 15.7888 84.2932 15.411 84.4647 14.9596L86.4176 15.5012C86.2121 16.1555 85.8666 16.7308 85.3811 17.2273C84.8957 17.7181 84.296 18.1017 83.5823 18.378C82.8685 18.6487 82.066 18.7841 81.1752 18.7841Z" fill="white"/>
<path d="M67.4764 23.6579C66.4998 23.6579 65.6605 23.5339 64.958 23.2856C64.2556 23.0431 63.6704 22.7215 63.2021 22.321C62.7395 21.9262 62.371 21.503 62.097 21.0518L63.7074 19.9349C63.8901 20.1719 64.1215 20.4426 64.4012 20.7471C64.6811 21.0574 65.0637 21.3253 65.549 21.5509C66.0402 21.7823 66.6827 21.898 67.4764 21.898C68.5387 21.898 69.4152 21.6442 70.1062 21.1363C70.7972 20.6287 71.1428 19.8334 71.1428 18.7503V16.1104H70.9713C70.8228 16.3474 70.6115 16.6405 70.3374 16.9904C70.069 17.3344 69.6806 17.6419 69.1725 17.9127C68.6699 18.1778 67.9903 18.3104 67.1337 18.3104C66.0716 18.3104 65.118 18.0621 64.2728 17.5658C63.4333 17.0693 62.7681 16.3474 62.2769 15.3996C61.7915 14.4519 61.5488 13.3012 61.5488 11.9474C61.5488 10.6162 61.7859 9.45702 62.2598 8.46974C62.7337 7.47707 63.3933 6.70983 64.2384 6.16838C65.0836 5.62117 66.0601 5.34766 67.1681 5.34766C68.0247 5.34766 68.7043 5.48859 69.2067 5.77064C69.715 6.04713 70.1034 6.36297 70.3717 6.71837C70.6459 7.06801 70.8572 7.35582 71.0055 7.58143H71.2112V5.51681H73.1643V18.8856C73.1643 20.0025 72.9073 20.9107 72.3934 21.6102C71.8851 22.3154 71.1997 22.8314 70.3374 23.1586C69.4808 23.4915 68.5272 23.6579 67.4764 23.6579ZM67.408 16.5165C68.2187 16.5165 68.9041 16.3332 69.4637 15.9665C70.0233 15.5998 70.4487 15.0725 70.7401 14.3843C71.0313 13.6962 71.177 12.8725 71.177 11.9136C71.177 10.9772 71.0341 10.1507 70.7486 9.43436C70.463 8.718 70.0404 8.15668 69.4808 7.75059C68.9212 7.3445 68.2302 7.14136 67.408 7.14136C66.5513 7.14136 65.8374 7.35582 65.2665 7.78438C64.7011 8.21312 64.2757 8.78856 63.9901 9.51049C63.7102 10.2326 63.5704 11.0337 63.5704 11.9136C63.5704 12.816 63.713 13.6143 63.9986 14.3082C64.29 14.9963 64.7182 15.5378 65.2836 15.9327C65.8547 16.3219 66.5628 16.5165 67.408 16.5165Z" fill="white"/>
<path d="M48.0472 18.5048H45.8134L52.2742 2.48364H54.4736L60.9345 18.5048H58.7006L53.4426 5.01825H53.3052L48.0472 18.5048ZM48.8718 12.2467H57.8758V13.9677H48.8718V12.2467Z" fill="white"/>
<path d="M128.339 38.105L124.913 25.1085H129.119L130.892 33.4345H131.003L132.905 25.1085H137.008L138.961 33.3753H139.072L140.794 25.1085H145L141.565 38.105H137.085L135.029 30.5323H134.884L132.828 38.105H128.339Z" fill="url(#paint1_linear_9654_274)"/>
<path fill-rule="evenodd" clip-rule="evenodd" d="M115.013 37.5129C116.007 38.0712 117.195 38.3505 118.577 38.3505C119.959 38.3505 121.144 38.0712 122.132 37.5129C123.125 36.9488 123.888 36.1646 124.419 35.1605C124.955 34.1509 125.224 32.9803 125.224 31.6492C125.224 30.3123 124.955 29.1417 124.419 28.1377C123.888 27.128 123.125 26.3438 122.132 25.7855C121.144 25.2214 119.959 24.9393 118.577 24.9393C117.195 24.9393 116.007 25.2214 115.013 25.7855C114.025 26.3438 113.263 27.128 112.726 28.1377C112.195 29.1417 111.93 30.3123 111.93 31.6492C111.93 32.9803 112.195 34.1509 112.726 35.1605C113.263 36.1646 114.025 36.9488 115.013 37.5129ZM121.315 32.2079C121.816 31.9221 121.816 31.2072 121.315 30.9214L117.649 28.831C117.148 28.5451 116.521 28.9023 116.521 29.4742V33.6551C116.521 34.227 117.148 34.5842 117.649 34.2983L121.315 32.2079Z" fill="url(#paint2_linear_9654_274)"/>
<path d="M110.975 20.7762V38.1049H106.786V20.7762H110.975Z" fill="url(#paint3_linear_9654_274)"/>
<path d="M105.977 25.1083V28.1545H95.3739L97.5139 25.1083H105.977ZM99.2784 38.1049V24.4484C99.2784 23.4443 99.4698 22.6122 99.8523 21.9523C100.235 21.2866 100.766 20.7903 101.446 20.4631C102.125 20.1304 102.91 19.9638 103.801 19.9638C104.384 19.9638 104.932 20.0089 105.446 20.0994C105.966 20.1838 106.351 20.26 106.602 20.3277L105.934 23.3568C105.78 23.3061 105.592 23.2638 105.369 23.23C105.152 23.1962 104.946 23.1791 104.752 23.1791C104.261 23.1791 103.924 23.2864 103.741 23.5007C103.559 23.715 103.467 24.0084 103.467 24.3807V38.1049H99.2784Z" fill="url(#paint4_linear_9654_274)"/>
<path d="M89.1603 34.695L89.1774 29.7621H89.7599L93.4603 25.1084H98.2059L92.7065 31.7759H91.6016L89.1603 34.695ZM85.3826 38.1049V20.7762H89.5714V38.1049H85.3826ZM93.5545 38.1049L90.1111 32.7067L92.8693 29.7705L98.3944 38.1049H93.5545Z" fill="url(#paint5_linear_9654_274)"/>
<path d="M84.2012 29.0769L80.3551 29.1785C80.3151 28.9076 80.2066 28.6679 80.0296 28.4591C79.8525 28.2449 79.6213 28.0785 79.3357 27.96C79.056 27.8358 78.7304 27.7738 78.3592 27.7738C77.8738 27.7738 77.4599 27.8698 77.1172 28.0614C76.7803 28.2532 76.6147 28.5128 76.6204 28.84C76.6147 29.0938 76.7174 29.3138 76.9286 29.4999C77.1458 29.6861 77.5311 29.8356 78.0851 29.9483L80.6206 30.4222C81.9342 30.6704 82.9105 31.0821 83.5502 31.6575C84.1956 32.233 84.521 32.9945 84.5268 33.9422C84.521 34.8333 84.2525 35.6091 83.7215 36.269C83.1961 36.9289 82.4767 37.4423 81.5629 37.8089C80.6491 38.17 79.6042 38.3505 78.4278 38.3505C76.5489 38.3505 75.0671 37.9697 73.9821 37.2082C72.9027 36.4411 72.2859 35.4145 72.1318 34.1282L76.2692 34.0267C76.3606 34.5005 76.5974 34.8615 76.9802 35.1098C77.3627 35.358 77.8511 35.4821 78.4449 35.4821C78.9818 35.4821 79.4186 35.3833 79.7555 35.1859C80.0923 34.9885 80.2638 34.7261 80.2694 34.399C80.2638 34.1058 80.1324 33.8716 79.8754 33.6967C79.6184 33.5162 79.2158 33.3753 78.6676 33.2737L76.3719 32.8422C75.0528 32.6053 74.0706 32.168 73.4253 31.5307C72.7799 30.8875 72.4602 30.0696 72.4658 29.0769C72.4602 28.2081 72.6942 27.4665 73.1683 26.8515C73.6422 26.2311 74.3161 25.7573 75.1898 25.4301C76.0636 25.1029 77.0943 24.9393 78.2821 24.9393C80.0638 24.9393 81.4687 25.3088 82.4966 26.0477C83.5245 26.7809 84.0927 27.7907 84.2012 29.0769Z" fill="url(#paint6_linear_9654_274)"/>
<path d="M63.4957 38.3251C62.6562 38.3251 61.911 38.1869 61.2599 37.9104C60.6147 37.6284 60.1036 37.2054 59.7267 36.6413C59.3555 36.0716 59.1699 35.358 59.1699 34.5005C59.1699 33.7786 59.2983 33.1694 59.5553 32.6729C59.8123 32.1765 60.1664 31.7732 60.6176 31.4629C61.0687 31.1527 61.5883 30.9185 62.1765 30.7607C62.7647 30.5971 63.3929 30.487 64.061 30.4307C64.8091 30.363 65.4116 30.2924 65.8684 30.2191C66.3254 30.1401 66.6566 30.0302 66.862 29.8891C67.0733 29.7424 67.179 29.5367 67.179 29.2715V29.2292C67.179 28.7949 67.0277 28.4591 66.725 28.2222C66.4224 27.9853 66.0141 27.8668 65.5001 27.8668C64.9462 27.8668 64.5006 27.9853 64.1638 28.2222C63.8269 28.4591 63.6128 28.7863 63.5213 29.2037L59.6581 29.0684C59.7724 28.2787 60.0664 27.5736 60.5405 26.9531C61.02 26.3269 61.6768 25.8362 62.5105 25.4808C63.35 25.1198 64.358 24.9393 65.5343 24.9393C66.3739 24.9393 67.1476 25.0379 67.8557 25.2355C68.5638 25.4273 69.1806 25.7092 69.706 26.0815C70.2314 26.4482 70.6369 26.8994 70.9224 27.4353C71.2136 27.9712 71.3593 28.5834 71.3593 29.2715V38.105H67.4188V36.2944H67.316C67.082 36.7343 66.7822 37.1066 66.4167 37.4113C66.0569 37.7158 65.6315 37.9444 65.1403 38.0967C64.655 38.2489 64.1066 38.3251 63.4957 38.3251ZM64.7892 35.6174C65.2404 35.6174 65.6456 35.5272 66.0054 35.3467C66.3711 35.1662 66.6622 34.918 66.8792 34.6021C67.0963 34.2805 67.2047 33.9082 67.2047 33.4852V32.2499C67.0848 32.3119 66.9391 32.3683 66.7679 32.419C66.6023 32.4699 66.4195 32.5178 66.2197 32.5629C66.0197 32.6081 65.8142 32.6476 65.603 32.6814C65.3917 32.7152 65.1888 32.7462 64.9947 32.7744C64.6007 32.8364 64.2638 32.9324 63.9839 33.062C63.7098 33.1918 63.4985 33.3612 63.35 33.5699C63.2073 33.7728 63.1359 34.0155 63.1359 34.2974C63.1359 34.7261 63.2901 35.0533 63.5985 35.2789C63.9125 35.5047 64.3095 35.6174 64.7892 35.6174Z" fill="url(#paint7_linear_9654_274)"/>
<path d="M45.8848 24.1779V20.7764H60.7124V24.1779H55.393V38.1051H51.2129V24.1779H45.8848Z" fill="url(#paint8_linear_9654_274)"/>
<path fill-rule="evenodd" clip-rule="evenodd" d="M115.67 11.9526H111.798V11.2805H115.67C117.27 11.2805 118.566 12.5772 118.566 14.1767V18.7529H117.894V14.1767C117.894 12.9483 116.899 11.9526 115.67 11.9526Z" fill="white"/>
<defs>
<linearGradient id="paint0_linear_9654_274" x1="0" y1="20.2515" x2="40.5029" y2="20.2515" gradientUnits="userSpaceOnUse">
<stop stop-color="#612A6B"/>
<stop offset="0.230208" stop-color="#8750A4"/>
<stop offset="0.484375" stop-color="#B486ED"/>
<stop offset="0.790236" stop-color="#E6B0FE"/>
<stop offset="1" stop-color="#F2B6FF"/>
</linearGradient>
<linearGradient id="paint1_linear_9654_274" x1="45.1306" y1="29.3684" x2="145.477" y2="29.3684" gradientUnits="userSpaceOnUse">
<stop stop-color="#9764BF"/>
<stop offset="0.230208" stop-color="#8750A4"/>
<stop offset="0.484375" stop-color="#B486ED"/>
<stop offset="0.790236" stop-color="#E6B0FE"/>
<stop offset="1" stop-color="#F2B6FF"/>
</linearGradient>
<linearGradient id="paint2_linear_9654_274" x1="45.1308" y1="29.3685" x2="145.477" y2="29.3685" gradientUnits="userSpaceOnUse">
<stop stop-color="#9764BF"/>
<stop offset="0.230208" stop-color="#8750A4"/>
<stop offset="0.484375" stop-color="#B486ED"/>
<stop offset="0.790236" stop-color="#E6B0FE"/>
<stop offset="1" stop-color="#F2B6FF"/>
</linearGradient>
<linearGradient id="paint3_linear_9654_274" x1="45.1306" y1="29.3683" x2="145.477" y2="29.3683" gradientUnits="userSpaceOnUse">
<stop stop-color="#9764BF"/>
<stop offset="0.230208" stop-color="#8750A4"/>
<stop offset="0.484375" stop-color="#B486ED"/>
<stop offset="0.790236" stop-color="#E6B0FE"/>
<stop offset="1" stop-color="#F2B6FF"/>
</linearGradient>
<linearGradient id="paint4_linear_9654_274" x1="30.6566" y1="29.3683" x2="154.63" y2="29.3683" gradientUnits="userSpaceOnUse">
<stop stop-color="#9764BF"/>
<stop offset="0.230208" stop-color="#8750A4"/>
<stop offset="0.484375" stop-color="#B486ED"/>
<stop offset="0.790236" stop-color="#E6B0FE"/>
<stop offset="1" stop-color="#F2B6FF"/>
</linearGradient>
<linearGradient id="paint5_linear_9654_274" x1="45.1301" y1="29.3683" x2="145.477" y2="29.3683" gradientUnits="userSpaceOnUse">
<stop stop-color="#9764BF"/>
<stop offset="0.230208" stop-color="#8750A4"/>
<stop offset="0.484375" stop-color="#B486ED"/>
<stop offset="0.790236" stop-color="#E6B0FE"/>
<stop offset="1" stop-color="#F2B6FF"/>
</linearGradient>
<linearGradient id="paint6_linear_9654_274" x1="45.1304" y1="29.3685" x2="145.477" y2="29.3685" gradientUnits="userSpaceOnUse">
<stop stop-color="#9764BF"/>
<stop offset="0.230208" stop-color="#8750A4"/>
<stop offset="0.484375" stop-color="#B486ED"/>
<stop offset="0.790236" stop-color="#E6B0FE"/>
<stop offset="1" stop-color="#F2B6FF"/>
</linearGradient>
<linearGradient id="paint7_linear_9654_274" x1="45.1308" y1="29.3685" x2="145.477" y2="29.3685" gradientUnits="userSpaceOnUse">
<stop stop-color="#9764BF"/>
<stop offset="0.230208" stop-color="#8750A4"/>
<stop offset="0.484375" stop-color="#B486ED"/>
<stop offset="0.790236" stop-color="#E6B0FE"/>
<stop offset="1" stop-color="#F2B6FF"/>
</linearGradient>
<linearGradient id="paint8_linear_9654_274" x1="45.131" y1="29.3685" x2="145.477" y2="29.3685" gradientUnits="userSpaceOnUse">
<stop stop-color="#9764BF"/>
<stop offset="0.230208" stop-color="#8750A4"/>
<stop offset="0.484375" stop-color="#B486ED"/>
<stop offset="0.790236" stop-color="#E6B0FE"/>
<stop offset="1" stop-color="#F2B6FF"/>
</linearGradient>
</defs>
</svg>
